<svg width="2088" height="588" viewBox="0 0 2088 588" fill="none" xmlns="http://www.w3.org/2000/svg">
<path d="M166 190L178 230L186 204M182 190L194 230L208.123 194.693C209.23 191.924 208.342 188.757 205.957 186.968L205.429 186.571C203.397 185.048 200.603 185.048 198.571 186.571C196.047 188.465 195.535 192.047 197.429 194.571L200 198M164 190H172M176 190H188M186 234C170.536 234 158 221.464 158 206C158 190.536 170.536 178 186 178C201.464 178 214 190.536 214 206C214 221.464 201.464 234 186 234Z" stroke="#262626" stroke-linejoin="round"/>
<path d="M314 30H370M338 8V52M314 14L370 2V58L314 50V14Z" stroke="#262626" stroke-linejoin="round"/>
<path d="M6 394V370M6 394L30 408M6 394L20 388M6 370L30 356M6 370L30 382M30 356L54 370M30 356V370M54 370V394M54 370L30 382M54 394L30 408M54 394L40 388M30 408V382M30 370L20 376V388M30 370L40 376V388M20 388L30 394L40 388" stroke="#262626"/>
<path d="M2058 54L2057.57 54.2519C2057.66 54.4055 2057.82 54.5 2058 54.5C2058.18 54.5 2058.34 54.4055 2058.43 54.2519L2058 54ZM2074 6L2074.43 6.24807C2074.52 6.09332 2074.52 5.90319 2074.43 5.74904C2074.34 5.59488 2074.18 5.5 2074 5.5V6ZM2058 34L2057.57 34.2481C2057.65 34.4039 2057.82 34.5 2058 34.5C2058.18 34.5 2058.35 34.4039 2058.43 34.2481L2058 34ZM2042 6V5.5C2041.82 5.5 2041.66 5.59488 2041.57 5.74904C2041.48 5.90319 2041.48 6.09332 2041.57 6.24807L2042 6ZM2054 6L2054.45 5.77639L2054.31 5.5H2054V6ZM2058 14L2057.55 14.2236C2057.64 14.393 2057.81 14.5 2058 14.5C2058.19 14.5 2058.36 14.393 2058.45 14.2236L2058 14ZM2062 6V5.5H2061.69L2061.55 5.77639L2062 6ZM2029.57 6.25194L2057.57 54.2519L2058.43 53.7481L2030.43 5.74806L2029.57 6.25194ZM2058.43 54.2519L2086.43 6.25194L2085.57 5.74806L2057.57 53.7481L2058.43 54.2519ZM2073.57 5.75193L2057.57 33.7519L2058.43 34.2481L2074.43 6.24807L2073.57 5.75193ZM2058.43 33.7519L2042.43 5.75193L2041.57 6.24807L2057.57 34.2481L2058.43 33.7519ZM2042 6.5H2054V5.5H2042V6.5ZM2053.55 6.22361L2057.55 14.2236L2058.45 13.7764L2054.45 5.77639L2053.55 6.22361ZM2058.45 14.2236L2062.45 6.22361L2061.55 5.77639L2057.55 13.7764L2058.45 14.2236ZM2062 6.5H2074V5.5H2062V6.5Z" fill="#262626"/>
<path d="M630 366H634V406H646L678 366V358H658V366H666L646 390V366H650V358H630V366Z" stroke="#262626"/>
<path d="M1298 32V31.3333C1298 28.3878 1295.61 26 1292.67 26H1288C1284.69 26 1282 28.6863 1282 32C1282 35.3137 1284.69 38 1288 38H1292C1295.31 38 1298 40.6863 1298 44C1298 47.3137 1295.31 50 1292 50H1288C1284.69 50 1282 47.3137 1282 44M1280 26H1260M1270 26V52M1250 2H1306V58H1250V2Z" stroke="#262626"/>
<path d="M1730 546L1742 558L1730 570M1748 570H1764M1722 534H1770C1772.21 534 1774 535.791 1774 538V578C1774 580.209 1772.21 582 1770 582H1722C1719.79 582 1718 580.209 1718 578V538C1718 535.791 1719.79 534 1722 534Z" stroke="#262626"/>
<path fill-rule="evenodd" clip-rule="evenodd" d="M1590 188C1582.53 188 1577.87 192 1576 200C1578.8 196 1582.07 194.5 1585.8 195.5C1587.93 196.071 1589.45 197.726 1591.14 199.559C1593.88 202.545 1597.06 206 1604 206C1611.47 206 1616.13 202 1618 194C1615.2 198 1611.93 199.5 1608.2 198.5C1606.07 197.929 1604.55 196.274 1602.86 194.441C1600.12 191.455 1596.94 188 1590 188ZM1576 206C1568.53 206 1563.87 210 1562 218C1564.8 214 1568.07 212.5 1571.8 213.5C1573.93 214.07 1575.45 215.726 1577.14 217.559C1579.88 220.544 1583.06 224 1590 224C1597.47 224 1602.13 220 1604 212C1601.2 216 1597.93 217.5 1594.2 216.5C1592.07 215.929 1590.55 214.274 1588.86 212.441C1586.12 209.455 1582.94 206 1576 206Z" stroke="#262626" stroke-linejoin="round"/>
<path d="M1754.5 385.427L1734.15 398.145M1746.02 390.726C1739.46 394.824 1730.83 392.83 1726.73 386.273C1722.63 379.715 1724.63 371.078 1731.18 366.981L1748.14 356.383C1754.7 352.285 1763.34 354.279 1767.44 360.836C1770.92 366.41 1770 373.486 1765.62 378M1746.14 373.183C1752.7 369.086 1761.34 371.08 1765.44 377.637C1769.53 384.194 1767.54 392.831 1760.98 396.928L1744.02 407.527C1737.46 411.624 1728.83 409.63 1724.73 403.073C1721.27 397.537 1722.15 390.517 1726.46 386M1737.66 378.482L1758.02 365.764" stroke="#262626"/>
<path d="M1458 550H1410M1458 550C1460.21 550 1462 548.209 1462 546V538C1462 535.791 1460.21 534 1458 534H1410C1407.79 534 1406 535.791 1406 538V546C1406 548.209 1407.79 550 1410 550M1458 550C1460.21 550 1462 551.791 1462 554V562C1462 564.209 1460.21 566 1458 566M1410 550C1407.79 550 1406 551.791 1406 554V562C1406 564.209 1407.79 566 1410 566M1458 566H1410M1458 566C1460.21 566 1462 567.791 1462 570V578C1462 580.209 1460.21 582 1458 582H1410C1407.79 582 1406 580.209 1406 578V570C1406 567.791 1407.79 566 1410 566M1412 542H1424M1412 558H1424M1412 574H1424" stroke="#262626"/>
<path d="M1724 218H1744M1726 194H1752C1755.31 194 1758 196.686 1758 200C1758 203.314 1755.31 206 1752 206H1734M1734 194V218M1746 206H1750C1754.42 206 1758 209.582 1758 214C1758 216.209 1759.79 218 1762 218H1768M1746 178L1751.38 182.442L1758.15 180.773L1761.07 187.108L1767.89 188.542L1767.77 195.516L1773.3 199.769L1770.16 206L1773.3 212.231L1767.77 216.484L1767.89 223.458L1761.07 224.892L1758.15 231.227L1751.38 229.558L1746 234L1740.62 229.558L1733.85 231.227L1730.93 224.892L1724.11 223.458L1724.23 216.484L1718.7 212.231L1721.84 206L1718.7 199.769L1724.23 195.516L1724.11 188.542L1730.93 187.108L1733.85 180.773L1740.62 182.442L1746 178Z" stroke="#262626" stroke-linejoin="round"/>
<path d="M2086 586V586.5H2086.5V586H2086ZM2086 530H2086.5V529.5H2086V530ZM2062 530V529.5H2061.79L2061.65 529.646L2062 530ZM2030 562L2029.65 561.646L2029.5 561.793V562H2030ZM2030 586H2029.5V586.5H2030V586ZM2046 570L2045.78 570.447L2045.79 570.457L2045.81 570.464L2046 570ZM2046 546V545.5C2045.72 545.5 2045.5 545.724 2045.5 546H2046ZM2070 546L2070.46 545.814L2070.46 545.795L2070.45 545.776L2070 546ZM2086.5 586V530H2085.5V586H2086.5ZM2086 529.5H2062V530.5H2086V529.5ZM2061.65 529.646L2029.65 561.646L2030.35 562.354L2062.35 530.354L2061.65 529.646ZM2029.5 562V586H2030.5V562H2029.5ZM2030 586.5H2086V585.5H2030V586.5ZM2085.65 529.646L2029.65 585.646L2030.35 586.354L2086.35 530.354L2085.65 529.646ZM2046.5 570V546H2045.5V570H2046.5ZM2046 546.5H2070V545.5H2046V546.5ZM2045.81 570.464L2085.81 586.464L2086.19 585.536L2046.19 569.536L2045.81 570.464ZM2069.54 546.186L2085.54 586.186L2086.46 585.814L2070.46 545.814L2069.54 546.186ZM2061.55 530.224L2069.55 546.224L2070.45 545.776L2062.45 529.776L2061.55 530.224ZM2029.78 562.447L2045.78 570.447L2046.22 569.553L2030.22 561.553L2029.78 562.447Z" fill="#262626"/>
<path d="M1434 354L1434.25 353.566C1434.09 353.478 1433.91 353.478 1433.75 353.566L1434 354ZM1420 362L1419.75 361.566C1419.7 361.597 1419.65 361.638 1419.61 361.688L1420 362ZM1412 372L1411.61 371.688C1411.57 371.739 1411.54 371.799 1411.52 371.863L1412 372ZM1408 386L1407.52 385.863C1407.48 385.983 1407.5 386.112 1407.55 386.224L1408 386ZM1416 402L1415.55 402.224C1415.6 402.327 1415.69 402.41 1415.8 402.457L1416 402ZM1434 410L1433.8 410.457C1433.93 410.514 1434.07 410.514 1434.2 410.457L1434 410ZM1452 402L1452.2 402.457C1452.31 402.41 1452.4 402.327 1452.45 402.224L1452 402ZM1460 386L1460.45 386.224C1460.5 386.112 1460.52 385.983 1460.48 385.863L1460 386ZM1456 372L1456.48 371.863C1456.46 371.799 1456.43 371.739 1456.39 371.688L1456 372ZM1448 362L1448.39 361.688C1448.35 361.638 1448.3 361.597 1448.25 361.566L1448 362ZM1433.75 353.566L1419.75 361.566L1420.25 362.434L1434.25 354.434L1433.75 353.566ZM1419.61 361.688L1411.61 371.688L1412.39 372.312L1420.39 362.312L1419.61 361.688ZM1411.52 371.863L1407.52 385.863L1408.48 386.137L1412.48 372.137L1411.52 371.863ZM1407.55 386.224L1415.55 402.224L1416.45 401.776L1408.45 385.776L1407.55 386.224ZM1415.8 402.457L1433.8 410.457L1434.2 409.543L1416.2 401.543L1415.8 402.457ZM1434.2 410.457L1452.2 402.457L1451.8 401.543L1433.8 409.543L1434.2 410.457ZM1452.45 402.224L1460.45 386.224L1459.55 385.776L1451.55 401.776L1452.45 402.224ZM1460.48 385.863L1456.48 371.863L1455.52 372.137L1459.52 386.137L1460.48 385.863ZM1456.39 371.688L1448.39 361.688L1447.61 362.312L1455.61 372.312L1456.39 371.688ZM1448.25 361.566L1434.25 353.566L1433.75 354.434L1447.75 362.434L1448.25 361.566ZM1417.74 362.425L1459.74 388.425L1460.26 387.575L1418.26 361.575L1417.74 362.425ZM1449.74 361.575L1407.74 387.575L1408.26 388.425L1450.26 362.425L1449.74 361.575ZM1411.65 372.354L1433.65 394.354L1434.35 393.646L1412.35 371.646L1411.65 372.354ZM1433.78 394.447L1449.78 402.447L1450.22 401.553L1434.22 393.553L1433.78 394.447ZM1455.65 371.646L1433.65 393.646L1434.35 394.354L1456.35 372.354L1455.65 371.646ZM1433.78 393.553L1417.78 401.553L1418.22 402.447L1434.22 394.447L1433.78 393.553Z" fill="#262626"/>
<path d="M682 30.3355C682 36.9629 669.464 42.3355 654 42.3355C638.536 42.3355 626 36.9629 626 30.3355C626 23.708 638.536 18.3355 654 18.3355C669.464 18.3355 682 23.708 682 30.3355Z" stroke="#262626"/>
<path d="M640.664 54.9556C646.491 58.1122 657.186 49.6483 664.551 36.051C671.917 22.4538 673.163 8.87208 667.336 5.7155C661.508 2.55892 650.814 11.0228 643.448 24.6201C636.083 38.2173 634.836 51.799 640.664 54.9556Z" stroke="#262626"/>
<path d="M667.336 54.9556C661.509 58.1122 650.814 49.6483 643.448 36.051C636.083 22.4538 634.836 8.87208 640.664 5.7155C646.491 2.55892 657.186 11.0228 664.551 24.6201C671.917 38.2173 673.163 51.799 667.336 54.9556Z" stroke="#262626"/>
<path d="M650 30.3355C650 32.5446 651.791 34.3355 654 34.3355C656.209 34.3355 658 32.5446 658 30.3355C658 28.1263 656.209 26.3355 654 26.3355C651.791 26.3355 650 28.1263 650 30.3355Z" stroke="#262626"/>
<path d="M336 186H340M330 192V182C330 179.791 331.791 178 334 178H350C352.209 178 354 179.791 354 182V202C354 204.209 352.209 206 350 206H334C331.791 206 330 207.791 330 210V230C330 232.209 331.791 234 334 234H350C352.209 234 354 232.209 354 230V220M344 194H318C315.791 194 314 195.791 314 198V218C314 220.209 315.791 222 318 222H330M340 218H366C368.209 218 370 216.209 370 214V194C370 191.791 368.209 190 366 190H354M344 226H348" stroke="#262626"/>
<path d="M1422 218V226H1430V218H1462V194H1406V218H1422ZM1422 218V194M1438 194V218M1430 200V212M1414 200V218M1446 200V218M1454 200V218" stroke="#262626"/>
<path d="M1450 24V23.3333C1450 20.3878 1447.61 18 1444.67 18H1440C1436.69 18 1434 20.6863 1434 24C1434 27.3137 1436.69 30 1440 30H1444C1447.31 30 1450 32.6863 1450 36C1450 39.3137 1447.31 42 1444 42H1440C1436.69 42 1434 39.3137 1434 36M1426 16V37.0557C1426 40.0859 1424.29 42.856 1421.58 44.2111L1418 46M1410 42V18L1434 4L1458 18V42L1434 56L1410 42Z" stroke="#262626"/>
<path d="M2046 400V370L2072 406M2070 368V392M2058 410C2042.54 410 2030 397.464 2030 382C2030 366.536 2042.54 354 2058 354C2073.46 354 2086 366.536 2086 382C2086 397.464 2073.46 410 2058 410Z" stroke="#262626" stroke-linejoin="round"/>
<path d="M1874 206L1902 178L1930 206M1874 206L1902 234L1930 206M1874 206L1920 216M1930 206L1890 190M1908 184L1886 218M1882 198L1906 230M1882 214L1920 196M1914 190L1908 228" stroke="#262626" stroke-linejoin="round"/>
<path d="M1278 412V354M1278 354L1267.47 365.482C1260.86 372.702 1260.44 383.652 1266.49 391.353L1278 406L1289.51 391.353C1295.56 383.652 1295.14 372.702 1288.53 365.482L1278 354Z" stroke="#262626" stroke-linejoin="round"/>
<path d="M322 374L322.354 373.646C322.211 373.503 321.995 373.461 321.809 373.538C321.622 373.615 321.5 373.798 321.5 374H322ZM330 382L329.646 382.354L330 382.707L330.354 382.354L330 382ZM338 374H338.5C338.5 373.798 338.378 373.615 338.191 373.538C338.005 373.461 337.789 373.503 337.646 373.646L338 374ZM354 390L353.646 390.354L354 390.707L354.354 390.354L354 390ZM318 362.5H366V361.5H318V362.5ZM369.5 366V398H370.5V366H369.5ZM366 401.5H318V402.5H366V401.5ZM314.5 398V366H313.5V398H314.5ZM318 401.5C316.067 401.5 314.5 399.933 314.5 398H313.5C313.5 400.485 315.515 402.5 318 402.5V401.5ZM369.5 398C369.5 399.933 367.933 401.5 366 401.5V402.5C368.485 402.5 370.5 400.485 370.5 398H369.5ZM366 362.5C367.933 362.5 369.5 364.067 369.5 366H370.5C370.5 363.515 368.485 361.5 366 361.5V362.5ZM318 361.5C315.515 361.5 313.5 363.515 313.5 366H314.5C314.5 364.067 316.067 362.5 318 362.5V361.5ZM322.5 392V374H321.5V392H322.5ZM321.646 374.354L329.646 382.354L330.354 381.646L322.354 373.646L321.646 374.354ZM330.354 382.354L338.354 374.354L337.646 373.646L329.646 381.646L330.354 382.354ZM337.5 374V392H338.5V374H337.5ZM353.5 372V390H354.5V372H353.5ZM345.646 382.354L353.646 390.354L354.354 389.646L346.354 381.646L345.646 382.354ZM354.354 390.354L362.354 382.354L361.646 381.646L353.646 389.646L354.354 390.354Z" fill="#262626"/>
<path d="M946 390.648C946 387.617 946.897 384.654 948.578 382.132L950.839 378.742C952.926 375.611 954.38 372.101 955.118 368.411L956.431 361.845C957.343 357.283 961.348 354 966 354C970.652 354 974.657 357.283 975.569 361.845L976.882 368.411C977.62 372.101 979.074 375.611 981.161 378.742L983.422 382.132C985.103 384.654 986 387.617 986 390.648M956.431 405.194C957.976 405.717 959.631 406 961.352 406H970.648C972.369 406 974.024 405.717 975.569 405.194M962 374L955.789 386.422C954.663 388.675 954.663 391.325 955.789 393.578C957.144 396.288 959.914 398 962.944 398H969.056C972.086 398 974.856 396.288 976.211 393.578C977.337 391.325 977.337 388.675 976.211 386.422L970 374M962 364V370M970 364V370M962.422 369.789L958 372L960.343 374.343C963.467 377.467 968.533 377.467 971.657 374.343L974 372L969.578 369.789C967.326 368.663 964.675 368.663 962.422 369.789ZM939.079 397.302L940.994 392.514C941.602 390.996 943.073 390 944.708 390H949.362C950.963 390 952.409 390.954 953.039 392.424L956.762 401.111C957.488 402.806 956.961 404.779 955.485 405.886L952.531 408.102C951.047 409.214 948.994 409.162 947.57 407.975L940.232 401.86C938.901 400.751 938.436 398.911 939.079 397.302ZM992.921 397.302L991.006 392.514C990.398 390.996 988.928 390 987.292 390H982.638C981.038 390 979.591 390.954 978.961 392.424L975.238 401.111C974.512 402.806 975.039 404.779 976.515 405.886L979.469 408.102C980.953 409.214 983.006 409.162 984.43 407.975L991.768 401.86C993.099 400.751 993.564 398.911 992.921 397.302Z" stroke="#262626"/>
<path d="M810 378V382M810 378C810 373.582 806.418 370 802 370C797.582 370 794 373.582 794 378V382C794 386.418 797.582 390 802 390C806.418 390 810 386.418 810 382M810 378C810 373.582 813.582 370 818 370C822.418 370 826 373.582 826 378V382C826 386.418 822.418 390 818 390C813.582 390 810 386.418 810 382M802 380V384M818 380V384M782 410L784.626 407.374C785.506 406.494 786 405.301 786 404.056V378C786 364.745 796.745 354 810 354C823.255 354 834 364.745 834 378V404.056C834 405.301 834.494 406.494 835.374 407.374L838 410H782ZM794 394L797.478 392.261C805.361 388.32 814.639 388.32 822.522 392.261L826 394L823.657 396.343C820.035 399.965 815.122 402 810 402C804.878 402 799.965 399.965 796.343 396.343L794 394Z" stroke="#262626" stroke-linejoin="round"/>
<path d="M29.102 210.49L17.4286 187.143L8 190.286L14.2857 215.429L29.102 210.49ZM29.102 210.49L36.2857 224.857L52 215.429L45.4 205.057M29.102 210.49L45.4 205.057M45.4 205.057L41 198.143L47.2857 196.572L52 202.857L45.4 205.057ZM10 178H50C54.4183 178 58 181.582 58 186V226C58 230.418 54.4183 234 50 234H10C5.58172 234 2 230.418 2 226V186C2 181.582 5.58172 178 10 178Z" stroke="#262626" stroke-linejoin="round"/>
<path d="M1142 32V31.3333C1142 28.3878 1139.61 26 1136.67 26H1132C1128.69 26 1126 28.6863 1126 32C1126 35.3137 1128.69 38 1132 38H1136C1139.31 38 1142 40.6863 1142 44C1142 47.3137 1139.31 50 1136 50H1132C1128.69 50 1126 47.3137 1126 44M1118 24V44C1118 47.3137 1115.31 50 1112 50C1108.69 50 1106 47.3137 1106 44M1094 2H1150V58H1094V2Z" stroke="#262626"/>
<path d="M165.681 368.432L182.252 358.765L181.748 357.902L165.177 367.568L165.681 368.432ZM162.5 390V374H161.5V390H162.5ZM189.748 358.765L206.319 368.432L206.823 367.568L190.252 357.902L189.748 358.765ZM209.5 374V390H210.5V374H209.5ZM207.748 394.735L189.748 405.235L190.252 406.099L208.252 395.599L207.748 394.735ZM182.252 405.235L165.681 395.568L165.177 396.432L181.748 406.099L182.252 405.235ZM183.584 360.723L163.584 390.723L164.416 391.277L184.416 361.277L183.584 360.723ZM208.416 390.723L188.416 360.723L187.584 361.277L207.584 391.277L208.416 390.723ZM166 394.5H206V393.5H166V394.5ZM186 361.5C184.067 361.5 182.5 359.933 182.5 358H181.5C181.5 360.485 183.515 362.5 186 362.5V361.5ZM189.5 358C189.5 359.933 187.933 361.5 186 361.5V362.5C188.485 362.5 190.5 360.485 190.5 358H189.5ZM186 354.5C187.933 354.5 189.5 356.067 189.5 358H190.5C190.5 355.515 188.485 353.5 186 353.5V354.5ZM186 353.5C183.515 353.5 181.5 355.515 181.5 358H182.5C182.5 356.067 184.067 354.5 186 354.5V353.5ZM210 373.5C208.067 373.5 206.5 371.933 206.5 370H205.5C205.5 372.485 207.515 374.5 210 374.5V373.5ZM213.5 370C213.5 371.933 211.933 373.5 210 373.5V374.5C212.485 374.5 214.5 372.485 214.5 370H213.5ZM210 366.5C211.933 366.5 213.5 368.067 213.5 370H214.5C214.5 367.515 212.485 365.5 210 365.5V366.5ZM210 365.5C207.515 365.5 205.5 367.515 205.5 370H206.5C206.5 368.067 208.067 366.5 210 366.5V365.5ZM210 397.5C208.067 397.5 206.5 395.933 206.5 394H205.5C205.5 396.485 207.515 398.5 210 398.5V397.5ZM213.5 394C213.5 395.933 211.933 397.5 210 397.5V398.5C212.485 398.5 214.5 396.485 214.5 394H213.5ZM210 390.5C211.933 390.5 213.5 392.067 213.5 394H214.5C214.5 391.515 212.485 389.5 210 389.5V390.5ZM210 389.5C207.515 389.5 205.5 391.515 205.5 394H206.5C206.5 392.067 208.067 390.5 210 390.5V389.5ZM186 409.5C184.067 409.5 182.5 407.933 182.5 406H181.5C181.5 408.485 183.515 410.5 186 410.5V409.5ZM189.5 406C189.5 407.933 187.933 409.5 186 409.5V410.5C188.485 410.5 190.5 408.485 190.5 406H189.5ZM186 402.5C187.933 402.5 189.5 404.067 189.5 406H190.5C190.5 403.515 188.485 401.5 186 401.5V402.5ZM186 401.5C183.515 401.5 181.5 403.515 181.5 406H182.5C182.5 404.067 184.067 402.5 186 402.5V401.5ZM162 397.5C160.067 397.5 158.5 395.933 158.5 394H157.5C157.5 396.485 159.515 398.5 162 398.5V397.5ZM165.5 394C165.5 395.933 163.933 397.5 162 397.5V398.5C164.485 398.5 166.5 396.485 166.5 394H165.5ZM162 390.5C163.933 390.5 165.5 392.067 165.5 394H166.5C166.5 391.515 164.485 389.5 162 389.5V390.5ZM162 389.5C159.515 389.5 157.5 391.515 157.5 394H158.5C158.5 392.067 160.067 390.5 162 390.5V389.5ZM162 373.5C160.067 373.5 158.5 371.933 158.5 370H157.5C157.5 372.485 159.515 374.5 162 374.5V373.5ZM165.5 370C165.5 371.933 163.933 373.5 162 373.5V374.5C164.485 374.5 166.5 372.485 166.5 370H165.5ZM162 366.5C163.933 366.5 165.5 368.067 165.5 370H166.5C166.5 367.515 164.485 365.5 162 365.5V366.5ZM162 365.5C159.515 365.5 157.5 367.515 157.5 370H158.5C158.5 368.067 160.067 366.5 162 366.5V365.5Z" fill="#262626"/>
<path d="M1094 210L1122 234L1150 210L1142 178L1134 202H1110L1102 178L1094 210Z" stroke="#262626" stroke-linejoin="round"/>
<path d="M646.15 224.477C646.414 224.394 646.56 224.113 646.477 223.85C646.394 223.586 646.113 223.44 645.85 223.523L646.15 224.477ZM631.627 215.516L631.143 215.389L630.889 216.357L631.373 216.484L631.627 215.516ZM661.5 234V234.5H662.5V234H661.5ZM660.25 214.75L660.197 214.253C660.005 214.273 659.842 214.402 659.778 214.584C659.714 214.766 659.761 214.969 659.898 215.105L660.25 214.75ZM674 199.65H674.5L674.5 199.648L674 199.65ZM670.667 191.625L670.201 191.444C670.13 191.628 670.174 191.838 670.313 191.978L670.667 191.625ZM670.467 183.557L670.924 183.354C670.864 183.219 670.747 183.117 670.605 183.077L670.467 183.557ZM661.778 186.725L661.651 187.209C661.787 187.244 661.931 187.221 662.049 187.145L661.778 186.725ZM646.222 186.725L645.951 187.145C646.069 187.221 646.213 187.244 646.349 187.209L646.222 186.725ZM637.533 183.557L637.395 183.077C637.253 183.117 637.136 183.219 637.076 183.354L637.533 183.557ZM637.333 191.625L637.687 191.978C637.826 191.838 637.87 191.628 637.799 191.444L637.333 191.625ZM634 199.715L634.5 199.715L634.5 199.714L634 199.715ZM647.75 214.75L648.103 215.104C648.239 214.969 648.285 214.768 648.223 214.587C648.16 214.406 648 214.276 647.809 214.254L647.75 214.75ZM646 220H646.5C646.5 219.988 646.5 219.976 646.499 219.963L646 220ZM645.5 234V234.5H646.5V234H645.5ZM645.85 223.523C643.238 224.346 641.372 224.319 639.973 223.857C638.576 223.396 637.576 222.479 636.735 221.383C636.314 220.834 635.938 220.246 635.571 219.653C635.209 219.067 634.85 218.463 634.48 217.919C633.747 216.837 632.887 215.847 631.627 215.516L631.373 216.484C632.256 216.715 632.94 217.428 633.653 218.48C634.006 219.001 634.346 219.572 634.72 220.178C635.09 220.777 635.488 221.401 635.942 221.992C636.852 223.177 638.003 224.26 639.66 224.807C641.315 225.353 643.405 225.342 646.15 224.477L645.85 223.523ZM662.5 219.75C662.5 218.495 662.439 217.546 662.161 216.712C661.877 215.861 661.383 215.171 660.602 214.395L659.898 215.105C660.614 215.816 660.995 216.377 661.212 217.028C661.435 217.697 661.5 218.505 661.5 219.75H662.5ZM660.303 215.247C663.823 214.869 667.386 214.001 670.069 211.679C672.773 209.338 674.5 205.594 674.5 199.65H673.5C673.5 205.391 671.841 208.822 669.414 210.923C666.966 213.042 663.655 213.881 660.197 214.253L660.303 215.247ZM674.5 199.648C674.49 196.507 673.24 193.496 671.022 191.272L670.313 191.978C672.345 194.016 673.491 196.774 673.5 199.652L674.5 199.648ZM671.134 191.806C671.659 190.453 671.911 189.01 671.875 187.559L670.875 187.584C670.908 188.902 670.679 190.214 670.201 191.444L671.134 191.806ZM671.875 187.559C671.839 186.108 671.516 184.679 670.924 183.354L670.011 183.761C670.549 184.966 670.843 186.265 670.875 187.584L671.875 187.559ZM670.467 183.557C670.605 183.077 670.604 183.077 670.604 183.076C670.604 183.076 670.603 183.076 670.603 183.076C670.602 183.076 670.601 183.076 670.601 183.076C670.599 183.075 670.597 183.075 670.595 183.074C670.592 183.073 670.587 183.072 670.582 183.071C670.572 183.068 670.559 183.065 670.544 183.062C670.513 183.055 670.471 183.047 670.419 183.039C670.314 183.023 670.167 183.007 669.976 183.002C669.593 182.991 669.036 183.024 668.292 183.183C666.806 183.501 664.578 184.321 661.506 186.305L662.049 187.145C665.042 185.211 667.159 184.448 668.501 184.161C669.172 184.018 669.65 183.993 669.949 184.001C670.099 184.005 670.204 184.017 670.267 184.027C670.298 184.032 670.319 184.036 670.33 184.038C670.335 184.04 670.337 184.04 670.337 184.04C670.338 184.04 670.337 184.04 670.336 184.04C670.335 184.04 670.334 184.039 670.333 184.039C670.333 184.039 670.332 184.039 670.332 184.039C670.332 184.039 670.331 184.039 670.331 184.039C670.331 184.038 670.33 184.038 670.467 183.557ZM661.904 186.241C656.721 184.89 651.279 184.89 646.096 186.241L646.349 187.209C651.366 185.901 656.634 185.901 661.651 187.209L661.904 186.241ZM646.494 186.305C643.421 184.321 641.193 183.501 639.707 183.183C638.963 183.024 638.406 182.991 638.024 183.002C637.833 183.007 637.685 183.023 637.581 183.039C637.529 183.047 637.487 183.055 637.456 183.062C637.441 183.065 637.428 183.068 637.418 183.071C637.413 183.072 637.408 183.073 637.404 183.074C637.403 183.075 637.401 183.075 637.399 183.076C637.398 183.076 637.398 183.076 637.397 183.076C637.397 183.076 637.396 183.076 637.396 183.076C637.395 183.077 637.395 183.077 637.533 183.557C637.67 184.038 637.67 184.038 637.669 184.038C637.669 184.039 637.669 184.039 637.668 184.039C637.668 184.039 637.667 184.039 637.667 184.039C637.666 184.039 637.665 184.04 637.664 184.04C637.663 184.04 637.663 184.04 637.663 184.04C637.663 184.04 637.665 184.04 637.671 184.038C637.681 184.036 637.702 184.032 637.733 184.027C637.796 184.017 637.901 184.005 638.05 184.001C638.349 183.993 638.827 184.018 639.498 184.161C640.84 184.448 642.956 185.211 645.951 187.145L646.494 186.305ZM637.076 183.354C636.484 184.679 636.161 186.108 636.125 187.559L637.125 187.584C637.157 186.265 637.451 184.966 637.989 183.761L637.076 183.354ZM636.125 187.559C636.089 189.01 636.341 190.453 636.866 191.806L637.799 191.444C637.321 190.214 637.092 188.902 637.125 187.584L636.125 187.559ZM636.978 191.272C635.872 192.382 634.995 193.699 634.398 195.148L635.323 195.528C635.869 194.201 636.673 192.995 637.687 191.978L636.978 191.272ZM634.398 195.148C633.801 196.597 633.496 198.149 633.5 199.716L634.5 199.714C634.496 198.278 634.776 196.856 635.323 195.528L634.398 195.148ZM633.5 199.715C633.5 205.618 635.228 209.324 637.933 211.649C640.614 213.953 644.175 214.826 647.691 215.246L647.809 214.254C644.347 213.839 641.034 212.995 638.584 210.89C636.158 208.806 634.5 205.412 634.5 199.715H633.5ZM647.397 214.396C645.789 215.998 645.344 217.892 645.501 220.037L646.499 219.963C646.356 218.023 646.756 216.447 648.103 215.104L647.397 214.396ZM645.5 220V234H646.5V220H645.5ZM662.5 234V228H661.5V234H662.5ZM662.5 228V219.75H661.5V228H662.5Z" fill="#262626"/>
<path d="M970 530L962 538M962 538L970 546M962 538H974C980.627 538 986 543.373 986 550V558M946 570C941.582 570 938 573.582 938 578C938 582.418 941.582 586 946 586C950.418 586 954 582.418 954 578C954 573.582 950.418 570 946 570ZM946 570V546M946 546C950.418 546 954 542.418 954 538C954 533.582 950.418 530 946 530C941.582 530 938 533.582 938 538C938 542.418 941.582 546 946 546ZM986 558C981.582 558 978 561.582 978 566C978 570.418 981.582 574 986 574C990.418 574 994 570.418 994 566C994 561.582 990.418 558 986 558Z" stroke="#262626"/>
<path d="M790 570C785.582 570 782 573.582 782 578C782 582.418 785.582 586 790 586C794.418 586 798 582.418 798 578C798 573.582 794.418 570 790 570ZM790 570V546M798 538C798 533.582 794.418 530 790 530C785.582 530 782 533.582 782 538C782 542.418 785.582 546 790 546M798 538C798 542.418 794.418 546 790 546M798 538H818C824.627 538 830 543.373 830 550V558M830 558C825.582 558 822 561.582 822 566C822 570.418 825.582 574 830 574C834.418 574 838 570.418 838 566C838 561.582 834.418 558 830 558Z" stroke="#262626"/>
<path d="M634 546C629.582 546 626 542.418 626 538C626 533.582 629.582 530 634 530C638.418 530 642 533.582 642 538C642 542.418 638.418 546 634 546ZM634 546V570M634 570C638.418 570 642 573.582 642 578C642 582.418 638.418 586 634 586C629.582 586 626 582.418 626 578C626 573.582 629.582 570 634 570ZM674 546C669.582 546 666 542.418 666 538C666 533.582 669.582 530 674 530C678.418 530 682 533.582 682 538C682 542.418 678.418 546 674 546ZM674 546V550C674 556.627 668.627 562 662 562H634" stroke="#262626"/>
<path d="M1126 530L1118 538M1118 538L1126 546M1118 538H1130C1136.63 538 1142 543.373 1142 550V570M1102 546C1106.42 546 1110 542.418 1110 538C1110 533.582 1106.42 530 1102 530C1097.58 530 1094 533.582 1094 538C1094 542.418 1097.58 546 1102 546ZM1102 546V566C1102 572.627 1107.37 578 1114 578H1124M1118 586L1126 578L1118 570M1142 570C1137.58 570 1134 573.582 1134 578C1134 582.418 1137.58 586 1142 586C1146.42 586 1150 582.418 1150 578C1150 573.582 1146.42 570 1142 570Z" stroke="#262626"/>
<path d="M342 570C335.373 570 330 564.627 330 558C330 551.373 335.373 546 342 546M342 570C348.627 570 354 564.627 354 558C354 551.373 348.627 546 342 546M342 570V588M342 546V528" stroke="#262626"/>
<path d="M478 546C473.582 546 470 542.418 470 538C470 533.582 473.582 530 478 530C482.418 530 486 533.582 486 538C486 542.418 482.418 546 478 546ZM478 546V570M486 578C486 582.418 482.418 586 478 586C473.582 586 470 582.418 470 578C470 573.582 473.582 570 478 570M486 578C486 573.582 482.418 570 478 570M486 578H506C512.627 578 518 572.627 518 566V558M518 558C513.582 558 510 554.418 510 550C510 545.582 513.582 542 518 542C522.418 542 526 545.582 526 550C526 554.418 522.418 558 518 558Z" stroke="#262626"/>
<path d="M490 362L494 366M498 374C495.791 374 494 372.209 494 370C494 367.791 495.791 366 498 366C500.209 366 502 367.791 502 370C502 372.209 500.209 374 498 374ZM498 374V390M502 374L508 380M498 390C500.209 390 502 391.791 502 394C502 396.209 500.209 398 498 398C495.791 398 494 396.209 494 394C494 391.791 495.791 390 498 390ZM495.171 356.828L472.828 379.172C471.266 380.734 471.266 383.266 472.828 384.828L495.171 407.172C496.734 408.734 499.266 408.734 500.828 407.172L523.171 384.828C524.734 383.266 524.734 380.734 523.171 379.172L500.828 356.828C499.266 355.266 496.734 355.266 495.171 356.828ZM510 386C507.791 386 506 384.209 506 382C506 379.791 507.791 378 510 378C512.209 378 514 379.791 514 382C514 384.209 512.209 386 510 386Z" stroke="#262626"/>
<path d="M1916.28 368C1912.65 364.297 1907.59 362 1902 362C1893.04 362 1885.46 367.886 1882.92 376L1908 401.084C1915.5 398.728 1921.1 392.069 1921.9 384H1908M1882 386L1898 402M1902 410C1886.54 410 1874 397.464 1874 382C1874 366.536 1886.54 354 1902 354C1917.46 354 1930 366.536 1930 382C1930 397.464 1917.46 410 1902 410Z" stroke="#262626"/>
<path d="M30 550H50V530H10L30 550ZM30 550H10V566L30 586V570H50L30 550Z" stroke="#262626" stroke-linejoin="round"/>
<path d="M1258 222L1294 190L1298 226L1278 234L1258 222ZM1258 222L1278 186L1286 198M1258 222L1262 178L1274 190" stroke="#262626" stroke-linejoin="round"/>
<path d="M810 180V214M810 214V222C810 226.418 806.418 230 802 230C797.582 230 794 226.418 794 222C794 217.582 797.582 214 802 214M810 214H802M802 214C797.582 214 794 210.418 794 206C794 201.582 797.582 198 802 198M802 198H810M802 198H818M802 198C797.582 198 794 194.418 794 190C794 185.582 797.582 182 802 182H818C822.418 182 826 185.582 826 190C826 194.418 822.418 198 818 198M818 198C822.418 198 826 201.582 826 206C826 210.418 822.418 214 818 214C813.582 214 810 210.418 810 206C810 201.582 813.582 198 818 198Z" stroke="#262626"/>
<path d="M2030 206L2029.55 205.776C2029.48 205.917 2029.48 206.083 2029.55 206.224L2030 206ZM2042 182V181.5C2041.81 181.5 2041.64 181.607 2041.55 181.776L2042 182ZM2074 182L2074.45 181.776C2074.36 181.607 2074.19 181.5 2074 181.5V182ZM2086 206L2086.45 206.224C2086.52 206.083 2086.52 205.917 2086.45 205.776L2086 206ZM2074 230V230.5C2074.19 230.5 2074.36 230.393 2074.45 230.224L2074 230ZM2042 230L2041.55 230.224C2041.64 230.393 2041.81 230.5 2042 230.5V230ZM2058 192L2058.28 191.584L2058 191.399L2057.72 191.584L2058 192ZM2046 200L2045.72 199.584L2045.5 199.732V200H2046ZM2046 212H2045.5V212.268L2045.72 212.416L2046 212ZM2058 220L2057.72 220.416L2058 220.601L2058.28 220.416L2058 220ZM2070 212L2070.28 212.416L2070.5 212.268V212H2070ZM2070 200H2070.5V199.732L2070.28 199.584L2070 200ZM2030.45 206.224L2042.45 182.224L2041.55 181.776L2029.55 205.776L2030.45 206.224ZM2042 182.5H2074V181.5H2042V182.5ZM2073.55 182.224L2085.55 206.224L2086.45 205.776L2074.45 181.776L2073.55 182.224ZM2085.55 205.776L2073.55 229.776L2074.45 230.224L2086.45 206.224L2085.55 205.776ZM2074 229.5H2042V230.5H2074V229.5ZM2042.45 229.776L2030.45 205.776L2029.55 206.224L2041.55 230.224L2042.45 229.776ZM2057.72 191.584L2045.72 199.584L2046.28 200.416L2058.28 192.416L2057.72 191.584ZM2045.5 200V212H2046.5V200H2045.5ZM2045.72 212.416L2057.72 220.416L2058.28 219.584L2046.28 211.584L2045.72 212.416ZM2058.28 220.416L2070.28 212.416L2069.72 211.584L2057.72 219.584L2058.28 220.416ZM2070.5 212V200H2069.5V212H2070.5ZM2070.28 199.584L2058.28 191.584L2057.72 192.416L2069.72 200.416L2070.28 199.584Z" fill="#262626"/>
<path d="M1094 382V374H1138C1140.21 374 1142 375.791 1142 378V382H1146C1148.21 382 1150 383.791 1150 386V390M1094 382H1132C1133.1 382 1134 381.105 1134 380V372M1094 382V386C1094 397.046 1102.95 406 1114 406H1116.11C1126.66 406 1136.34 400.264 1141.42 391.094C1141.79 390.431 1142.48 390 1143.24 390H1152M1102 382V366H1126M1126 366V382M1126 366V358H1118V382M1110 382V366M1104 390H1108" stroke="#262626"/>
<path d="M1590 410C1574.54 410 1562 397.464 1562 382C1562 366.536 1574.54 354 1590 354C1605.46 354 1618 366.536 1618 382C1618 397.464 1605.46 410 1590 410ZM1590 410V390H1584C1578.48 390 1574 385.523 1574 380C1574 374.477 1578.48 370 1584 370H1590.78C1598.19 370 1604.32 375.796 1604.73 383.204L1606 406M1588 390H1589.53C1592.27 390 1594.77 388.451 1596 386M1576 378H1580M1584 378H1588" stroke="#262626"/>
<path d="M1306 537.995C1306 542.408 1293.46 545.989 1278 545.989C1262.54 545.989 1250 542.408 1250 537.995M1306 537.995C1306 533.582 1293.46 530 1278 530C1262.54 530 1250 533.582 1250 537.995M1306 537.995V577.969C1306 582.382 1293.46 585.963 1278 585.963C1262.54 585.963 1250 582.382 1250 577.969V537.995M1306 557.981C1306 562.395 1293.46 565.977 1278 565.977C1262.54 565.977 1250 562.395 1250 557.981" stroke="#262626" stroke-linecap="square"/>
<path d="M468 182H474C487.255 182 498 192.745 498 206C498 219.255 487.255 230 474 230H468M496 182H514C520.627 182 526 187.373 526 194C526 200.627 520.627 206 514 206M514 206H504M514 206H506M514 206C520.627 206 526 211.373 526 218C526 224.627 520.627 230 514 230H496" stroke="#262626"/>
<path d="M1754 38C1751.44 40.5612 1747.97 42 1744.34 42H1742C1735.37 42 1730 36.6274 1730 30C1730 23.3726 1735.37 18 1742 18H1744.34C1747.97 18 1751.44 19.4388 1754 22M1746 24V36M1740 30H1764M1758 24V36M1722 42V18L1746 4L1770 18V42L1746 56L1722 42Z" stroke="#262626"/>
<path d="M966 178L966.291 177.593C966.117 177.469 965.883 177.469 965.709 177.593L966 178ZM994 198H994.5C994.5 197.839 994.422 197.687 994.291 197.593L994 198ZM994 214L994.291 214.407C994.422 214.313 994.5 214.161 994.5 214H994ZM966 234L965.709 234.407C965.883 234.531 966.117 234.531 966.291 234.407L966 234ZM938 214H937.5C937.5 214.161 937.578 214.313 937.709 214.407L938 214ZM938 198L937.709 197.593C937.578 197.687 937.5 197.839 937.5 198H938ZM965.709 178.407L993.709 198.407L994.291 197.593L966.291 177.593L965.709 178.407ZM993.5 198V214H994.5V198H993.5ZM993.709 213.593L965.709 233.593L966.291 234.407L994.291 214.407L993.709 213.593ZM966.291 233.593L938.291 213.593L937.709 214.407L965.709 234.407L966.291 233.593ZM938.5 214V198H937.5V214H938.5ZM938.291 198.407L966.291 178.407L965.709 177.593L937.709 197.593L938.291 198.407ZM938.291 214.407L966.291 194.407L965.709 193.593L937.709 213.593L938.291 214.407ZM965.709 194.407L993.709 214.407L994.291 213.593L966.291 193.593L965.709 194.407ZM937.709 198.407L965.709 218.407L966.291 217.593L938.291 197.593L937.709 198.407ZM966.291 218.407L994.291 198.407L993.709 197.593L965.709 217.593L966.291 218.407ZM965.5 178V194H966.5V178H965.5ZM965.5 218V234H966.5V218H965.5Z" fill="#262626"/>
<path d="M1600 22L1599.73 21.7279C1597.34 19.341 1594.1 18 1590.73 18H1590C1583.37 18 1578 23.3726 1578 30C1578 36.6274 1583.37 42 1590 42H1590.73C1594.1 42 1597.34 40.659 1599.73 38.2721L1600 38M1566 42V18L1590 4L1614 18V42L1590 56L1566 42Z" stroke="#262626"/>
<path d="M1890 546H1914M1890 546L1888.53 548.933C1886.87 552.265 1886 555.94 1886 559.666V570C1886 578.837 1893.16 586 1902 586C1910.84 586 1918 578.837 1918 570V559.666C1918 555.94 1917.13 552.265 1915.47 548.933L1914 546M1890 546V542C1890 535.373 1895.37 530 1902 530C1908.63 530 1914 535.373 1914 542V546M1872 562H1886M1932 562H1918M1876 584L1888 578M1928 584L1916 578M1876 540L1888 546M1928 540L1916 546" stroke="#262626"/>
<path d="M31.2994 12.965C30.5428 12.965 29.9288 12.351 29.9288 11.5944C29.9288 6.29555 34.2271 2 39.5232 2C40.2825 2 40.8938 2.61404 40.8938 3.37063C40.8938 8.66948 36.5983 12.965 31.2994 12.965Z" stroke="#262626"/>
<path d="M51.3119 41.8265C51.841 42.224 52.0137 42.945 51.7149 43.5371C46.8902 53.1918 43.0415 58 39.5245 58C37.8879 58 36.2788 57.4709 34.7108 56.4402C32.4274 54.9352 29.4805 54.8722 27.134 56.2757C25.2343 57.4133 23.4251 58 21.7063 58C16.5335 58 8 42.0705 8 33.3286C8 23.9974 12.8931 16.8811 20.3357 16.8811C23.8363 16.8811 26.8599 17.3964 29.3983 18.4436C30.4756 18.8877 31.6927 18.8548 32.7426 18.3504C34.804 17.3608 37.5206 16.8811 40.8951 16.8811C45.0125 16.8811 48.6008 18.9315 51.586 22.9118C52.0383 23.5177 51.9177 24.3757 51.3119 24.8307C47.9813 27.328 46.3776 30.1351 46.3776 33.3286C46.3776 36.5222 47.9813 39.3292 51.3119 41.8265Z" stroke="#262626"/>
<path d="M166 10L174 22M206 10L198 22M172 38H176M196 38H200M162 50V42C162 28.7452 172.745 18 186 18C199.255 18 210 28.7452 210 42V50H162Z" stroke="#262626"/>
<path d="M1566 572V554C1566 549.582 1569.58 546 1574 546C1578.42 546 1582 549.582 1582 554V572M1566 562H1582M1608 558H1598M1608 558C1611.31 558 1614 555.314 1614 552C1614 548.686 1611.31 546 1608 546H1598V558M1608 558C1611.31 558 1614 560.686 1614 564C1614 567.314 1611.31 570 1608 570H1598V558M1590 532V584" stroke="#262626"/>
<path d="M158 578L182 538L206 578H158Z" stroke="#262626" stroke-linejoin="round"/>
<path d="M174 578L194 544L214 578H174Z" stroke="#262626" stroke-linejoin="round"/>
<path d="M1910 20V40M1918 20V40M1904 26H1924M1904 34H1924M1904 40L1902.39 40.8043C1900.82 41.5906 1899.08 42 1897.33 42C1891.07 42 1886 36.9291 1886 30.6738V29.3262C1886 23.0709 1891.07 18 1897.33 18C1899.08 18 1900.82 18.4094 1902.39 19.1957L1904 20M1878 42V18L1902 4L1926 18V42L1902 56L1878 42Z" stroke="#262626"/>
<path d="M498 2L498.137 1.51924C498.047 1.49359 497.952 1.49359 497.863 1.51924L498 2ZM470 10L469.863 9.51924C469.628 9.58626 469.476 9.81276 469.503 10.0552L470 10ZM474 46L473.503 46.0552C473.522 46.2238 473.625 46.3714 473.776 46.4472L474 46ZM498 58L497.776 58.4472C497.917 58.5176 498.083 58.5176 498.223 58.4472L498 58ZM522 46L522.223 46.4472C522.375 46.3714 522.478 46.2238 522.497 46.0552L522 46ZM526 10L526.497 10.0552C526.524 9.81276 526.372 9.58626 526.137 9.51924L526 10ZM498 12L498.458 11.7996L498 10.7526L497.542 11.7996L498 12ZM497.863 1.51924L469.863 9.51924L470.137 10.4808L498.137 2.48076L497.863 1.51924ZM469.503 10.0552L473.503 46.0552L474.497 45.9448L470.497 9.94478L469.503 10.0552ZM473.776 46.4472L497.776 58.4472L498.223 57.5528L474.223 45.5528L473.776 46.4472ZM498.223 58.4472L522.223 46.4472L521.776 45.5528L497.776 57.5528L498.223 58.4472ZM522.497 46.0552L526.497 10.0552L525.503 9.94478L521.503 45.9448L522.497 46.0552ZM526.137 9.51924L498.137 1.51924L497.863 2.48076L525.863 10.4808L526.137 9.51924ZM484.458 44.2004L498.458 12.2004L497.542 11.7996L483.542 43.7996L484.458 44.2004ZM497.542 12.2004L511.542 44.2004L512.458 43.7996L498.458 11.7996L497.542 12.2004ZM488 34.5H508V33.5H488V34.5Z" fill="#262626"/>
<path d="M782 2V1.5C781.86 1.5 781.727 1.55855 781.632 1.66145C781.537 1.76434 781.49 1.90218 781.502 2.04152L782 2ZM838 2L838.498 2.04152C838.51 1.90218 838.463 1.76434 838.368 1.66145C838.273 1.55855 838.14 1.5 838 1.5V2ZM834 50L834.158 50.4743C834.348 50.4111 834.482 50.2408 834.498 50.0415L834 50ZM810 58L809.842 58.4743C809.945 58.5086 810.055 58.5086 810.158 58.4743L810 58ZM786 50L785.502 50.0415C785.518 50.2408 785.652 50.4111 785.842 50.4743L786 50ZM798 14V13.5H797.5V14H798ZM798 26H797.5V26.5H798V26ZM822 26H822.5V25.5H822V26ZM822 38L822.158 38.4743L822.5 38.3604V38H822ZM810 42L809.842 42.4743L810 42.527L810.158 42.4743L810 42ZM798 38H797.5V38.3604L797.842 38.4743L798 38ZM782 2.5H838V1.5H782V2.5ZM837.502 1.95848L833.502 49.9585L834.498 50.0415L838.498 2.04152L837.502 1.95848ZM833.842 49.5257L809.842 57.5257L810.158 58.4743L834.158 50.4743L833.842 49.5257ZM810.158 57.5257L786.158 49.5257L785.842 50.4743L809.842 58.4743L810.158 57.5257ZM786.498 49.9585L782.498 1.95848L781.502 2.04152L785.502 50.0415L786.498 49.9585ZM824 13.5H798V14.5H824V13.5ZM797.5 14V26H798.5V14H797.5ZM798 26.5H822V25.5H798V26.5ZM821.5 26V38H822.5V26H821.5ZM821.842 37.5257L809.842 41.5257L810.158 42.4743L822.158 38.4743L821.842 37.5257ZM810.158 41.5257L798.158 37.5257L797.842 38.4743L809.842 42.4743L810.158 41.5257ZM798.5 38V32H797.5V38H798.5Z" fill="#262626"/>
<path d="M938 2V1.5C937.86 1.5 937.727 1.55855 937.632 1.66145C937.537 1.76434 937.49 1.90218 937.502 2.04152L938 2ZM994 2L994.498 2.04152C994.51 1.90218 994.463 1.76434 994.368 1.66145C994.273 1.55855 994.14 1.5 994 1.5V2ZM990 50L990.158 50.4743C990.348 50.4111 990.482 50.2408 990.498 50.0415L990 50ZM966 58L965.842 58.4743C965.945 58.5086 966.055 58.5086 966.158 58.4743L966 58ZM942 50L941.502 50.0415C941.518 50.2408 941.652 50.4111 941.842 50.4743L942 50ZM978 14H978.5V13.5H978V14ZM978 38L978.158 38.4743L978.5 38.3604V38H978ZM966 42L965.842 42.4743L966 42.527L966.158 42.4743L966 42ZM954 38H953.5V38.3604L953.842 38.4743L954 38ZM938 2.5H994V1.5H938V2.5ZM993.502 1.95848L989.502 49.9585L990.498 50.0415L994.498 2.04152L993.502 1.95848ZM989.842 49.5257L965.842 57.5257L966.158 58.4743L990.158 50.4743L989.842 49.5257ZM966.158 57.5257L942.158 49.5257L941.842 50.4743L965.842 58.4743L966.158 57.5257ZM942.498 49.9585L938.498 1.95848L937.502 2.04152L941.502 50.0415L942.498 49.9585ZM978 13.5H952V14.5H978V13.5ZM960 26.5H978V25.5H960V26.5ZM977.5 26V38H978.5V26H977.5ZM977.842 37.5257L965.842 41.5257L966.158 42.4743L978.158 38.4743L977.842 37.5257ZM966.158 41.5257L954.158 37.5257L953.842 38.4743L965.842 42.4743L966.158 41.5257ZM954.5 38V32H953.5V38H954.5ZM977.5 14V26H978.5V14H977.5Z" fill="#262626"/>
</svg>
